<svg width="250" height="250" viewBox="0 0 250 250" fill="none" xmlns="http://www.w3.org/2000/svg">
<path d="M125 20C70.1 20 25 65.1 25 120C25 174.9 70.1 220 125 220C179.9 220 225 174.9 225 120C225 65.1 179.9 20 125 20Z" stroke="black" stroke-width="2" stroke-linecap="round" stroke-linejoin="round"/>
<path d="M140 100C140 100 130 90 120 100C110 110 100 100 100 100" stroke="black" stroke-width="2" stroke-linecap="round" stroke-linejoin="round"/>
<path d="M100 140C100 140 110 150 120 140C130 130 140 140 140 140" stroke="black" stroke-width="2" stroke-linecap="round" stroke-linejoin="round"/>
<path d="M160 120C160 120 170 110 180 120C190 130 180 140 180 140" stroke="black" stroke-width="2" stroke-linecap="round" stroke-linejoin="round"/>
<path d="M70 120C70 120 60 110 50 120C40 130 50 140 50 140" stroke="black" stroke-width="2" stroke-linecap="round" stroke-linejoin="round"/>
<path d="M125 170C125 170 115 180 105 170C95 160 85 170 85 170" stroke="black" stroke-width="2" stroke-linecap="round" stroke-linejoin="round"/>
<path d="M125 170C125 170 135 180 145 170C155 160 165 170 165 170" stroke="black" stroke-width="2" stroke-linecap="round" stroke-linejoin="round"/>
<path d="M150 70C150 70 160 60 170 70C180 80 170 90 170 90" stroke="black" stroke-width="2" stroke-linecap="round" stroke-linejoin="round"/>
<path d="M100 70C100 70 90 60 80 70C70 80 80 90 80 90" stroke="black" stroke-width="2" stroke-linecap="round" stroke-linejoin="round"/>
<path d="M125 20L125 50" stroke="black" stroke-width="2" stroke-linecap="round" stroke-linejoin="round"/>
<path d="M125 220L125 190" stroke="black" stroke-width="2" stroke-linecap="round" stroke-linejoin="round"/>
<path d="M225 120L195 120" stroke="black" stroke-width="2" stroke-linecap="round" stroke-linejoin="round"/>
<path d="M25 120L55 120" stroke="black" stroke-width="2" stroke-linecap="round" stroke-linejoin="round"/>
</svg>
