<?xml version="1.0" encoding="UTF-8"?>
<svg xmlns="http://www.w3.org/2000/svg" xmlns:xlink="http://www.w3.org/1999/xlink" width="512" height="512" viewBox="0 0 2835 2835">
<path fill-rule="nonzero" fill="rgb(99.609375%, 78.125%, 30.979919%)" fill-opacity="1" d="M 2691.578125 1740.789062 C 2691.578125 1843.148438 2440.179688 1932.605469 2065.339844 1981.226562 C 1875.46875 2005.824219 1653.941406 2019.964844 1417.320312 2019.964844 C 1180.640625 2019.964844 959.09375 2005.824219 769.226562 1981.226562 C 394.390625 1932.605469 143.066406 1843.148438 143.066406 1740.789062 C 143.066406 1651.050781 336.320312 1571.191406 636.636719 1520.121094 C 852.328125 1483.46875 1123.140625 1461.609375 1417.320312 1461.609375 C 1711.429688 1461.609375 1982.308594 1483.46875 2197.941406 1520.121094 C 2498.25 1571.191406 2691.578125 1651.050781 2691.578125 1740.789062 "/>
<path fill-rule="nonzero" fill="rgb(99.609375%, 81.25%, 40.380859%)" fill-opacity="1" d="M 2088.210938 1531.871094 C 2088.210938 1533.460938 2088.210938 1535.050781 2088.210938 1536.640625 C 2087.988281 1578.261719 2084.390625 1619.589844 2077.46875 1660.640625 L 2073.929688 1661.289062 C 2071.550781 1661.71875 2069.238281 1662.148438 2066.929688 1662.660156 L 2059.929688 1663.960938 L 2052.859375 1665.261719 L 2045.71875 1666.558594 C 2031.511719 1669.148438 2017.011719 1671.609375 2002.230469 1673.988281 L 1994.859375 1675.21875 C 1987.5 1676.371094 1980 1677.519531 1972.5 1678.679688 C 1809.828125 1703.269531 1620.03125 1717.410156 1417.320312 1717.410156 C 1214.609375 1717.410156 1024.808594 1703.269531 862.140625 1678.679688 C 854.636719 1677.519531 847.210938 1676.371094 839.78125 1675.21875 L 832.421875 1673.988281 C 815.175781 1671.25 798.300781 1668.289062 781.777344 1665.261719 C 779.398438 1664.820312 777.089844 1664.390625 774.710938 1663.960938 C 768.863281 1662.878906 763.023438 1661.71875 757.179688 1660.640625 C 750.253906 1619.589844 746.648438 1578.261719 746.433594 1536.640625 C 746.433594 1535.050781 746.433594 1533.460938 746.433594 1531.871094 C 746.433594 1512.179688 747.15625 1492.628906 748.59375 1473.289062 C 755.59375 1379.160156 779.542969 1289.558594 820.375 1204.511719 C 843.457031 1156.539062 871.519531 1111.660156 904.488281 1069.898438 C 1027.558594 914.21875 1211.578125 815.390625 1417.320312 815.390625 C 1622.988281 815.390625 1807.089844 914.21875 1930.078125 1069.898438 C 1963.128906 1111.660156 1991.109375 1156.539062 2014.199219 1204.511719 C 2055.101562 1289.558594 2078.980469 1379.160156 2085.980469 1473.289062 C 2087.488281 1492.628906 2088.210938 1512.179688 2088.210938 1531.871094 "/>
<path fill-rule="nonzero" fill="rgb(99.21875%, 5.880737%, 3.140259%)" fill-opacity="1" d="M 2088.210938 1536.640625 C 2087.988281 1578.261719 2084.390625 1619.589844 2077.46875 1660.640625 L 2073.859375 1661.289062 C 2071.550781 1661.71875 2069.238281 1662.148438 2066.929688 1662.660156 L 2045.71875 1666.558594 C 2031.441406 1669.148438 2016.941406 1671.609375 2002.230469 1673.988281 L 1994.859375 1675.21875 C 1987.441406 1676.371094 1980 1677.519531 1972.429688 1678.679688 C 1809.828125 1703.269531 1620.03125 1717.410156 1417.320312 1717.410156 C 1214.609375 1717.410156 1024.808594 1703.269531 862.140625 1678.679688 C 854.636719 1677.519531 847.136719 1676.371094 839.78125 1675.21875 L 832.347656 1673.988281 C 815.175781 1671.25 798.300781 1668.289062 781.777344 1665.261719 C 779.398438 1664.820312 777.089844 1664.390625 774.710938 1663.960938 C 768.796875 1662.878906 762.949219 1661.71875 757.179688 1660.640625 C 750.179688 1619.589844 746.574219 1578.261719 746.359375 1536.640625 C 783.148438 1543.988281 821.742188 1550.699219 862.140625 1556.828125 C 1024.808594 1581.429688 1214.609375 1595.570312 1417.320312 1595.570312 C 1619.960938 1595.570312 1809.761719 1581.429688 1972.429688 1556.828125 C 2012.828125 1550.699219 2051.421875 1543.921875 2088.210938 1536.640625 "/>
</svg>
